<svg xmlns="http://www.w3.org/2000/svg" xmlns:svg="http://www.w3.org/2000/svg" id="svg2" width="36" height="35.442" version="1.1"><metadata id="metadata7"/><g id="layer1" transform="translate(-149.5,-112.42032)"><path style="fill:none;stroke:#ffad00;stroke-width:1px;stroke-linecap:butt;stroke-linejoin:miter;stroke-opacity:1" id="path3789" d="m 167.5,114.43554 0,6.9448"/><path style="fill:#ffad00;fill-opacity:1;fill-rule:nonzero;stroke:#ffad00;stroke-width:1;stroke-linecap:round;stroke-linejoin:miter;stroke-miterlimit:4;stroke-opacity:1;stroke-dasharray:none;stroke-dashoffset:0" id="path3793" d="m 125.89026,119.48631 a 1.2626907,1.2626907 0 1 1 -2.52538,0 1.2626907,1.2626907 0 1 1 2.52538,0 z" transform="translate(42.872429,-5.3033009)"/><path style="fill:#ffad00;fill-opacity:1;fill-rule:nonzero;stroke:#ffad00;stroke-width:1;stroke-linecap:round;stroke-linejoin:miter;stroke-miterlimit:4;stroke-opacity:1;stroke-dasharray:none;stroke-dashoffset:0" id="path2989" d="m 180,119.86218 c 0,6.90356 -5.59644,12.5 -12.5,12.5 -6.90356,0 -12.5,-5.59644 -12.5,-12.5 0,0 0,0 0,0 l 12.5,0 z" transform="matrix(-1,0,0,-1,335,252.22436)"/><rect style="fill:#ffad00;fill-opacity:1;fill-rule:nonzero;stroke:#ffad00;stroke-width:1;stroke-linecap:round;stroke-linejoin:miter;stroke-miterlimit:4;stroke-opacity:1;stroke-dasharray:none;stroke-dashoffset:0" id="rect2991" width="25" height="5" x="155" y="133.195"/><rect style="fill:#ffad00;fill-opacity:1;fill-rule:nonzero;stroke:#ffad00;stroke-width:1;stroke-linecap:round;stroke-linejoin:miter;stroke-miterlimit:4;stroke-opacity:1;stroke-dasharray:none;stroke-dashoffset:0" id="rect2993" width="35" height="5" x="150" y="142.362"/><path style="fill:#fff;fill-opacity:1;fill-rule:nonzero;stroke:#000;stroke-width:1;stroke-linecap:round;stroke-linejoin:miter;stroke-miterlimit:4;stroke-opacity:1;stroke-dasharray:none;stroke-dashoffset:0" id="path3791"/><g id="g3840" transform="translate(0.054089,0)"><path id="path2995" d="m 115,129.86218 c 0,1.38071 -1.11929,2.5 -2.5,2.5 -1.38071,0 -2.5,-1.11929 -2.5,-2.5 0,-1.38071 1.11929,-2.5 2.5,-2.5 1.38071,0 2.5,1.11929 2.5,2.5 z" transform="matrix(1.1683588,0,0,1.1683588,31.096755,-21.386601)" style="fill:#fff;fill-opacity:1;fill-rule:nonzero;stroke:#fff;stroke-width:1;stroke-linecap:round;stroke-linejoin:miter;stroke-miterlimit:4;stroke-opacity:1;stroke-dasharray:none;stroke-dashoffset:0"/><path id="path2995-6" d="m 115,129.86218 c 0,1.38071 -1.11929,2.5 -2.5,2.5 -1.38071,0 -2.5,-1.11929 -2.5,-2.5 0,-1.38071 1.11929,-2.5 2.5,-2.5 1.38071,0 2.5,1.11929 2.5,2.5 z" transform="matrix(1.1683588,0,0,1.1683588,40.914337,-21.386601)" style="fill:#fff;fill-opacity:1;fill-rule:nonzero;stroke:#fff;stroke-width:1;stroke-linecap:round;stroke-linejoin:miter;stroke-miterlimit:4;stroke-opacity:1;stroke-dasharray:none;stroke-dashoffset:0"/></g></g></svg>