<svg xmlns="http://www.w3.org/2000/svg" xmlns:svg="http://www.w3.org/2000/svg" id="svg2" width="70.429" height="66.143" version="1.1"><defs id="defs4"><marker id="Arrow2Mend" orient="auto" refX="0" refY="0" style="overflow:visible"><path id="path3786" d="M 8.7185878,4.0337352 -2.2072895,0.01601326 8.7185884,-4.0017078 c -1.7454984,2.3720609 -1.7354408,5.6174519 -6e-7,8.035443 z" transform="scale(-0.6,-0.6)" style="fill-rule:evenodd;stroke-width:.625;stroke-linejoin:round"/></marker><marker id="Arrow1Mend" orient="auto" refX="0" refY="0" style="overflow:visible"><path id="path3768" d="M 0,0 5,-5 -12.5,0 5,5 0,0 z" transform="matrix(-0.4,0,0,-0.4,-4,0)" style="fill-rule:evenodd;stroke:#000;stroke-width:1pt"/></marker><marker id="Arrow1Lend" orient="auto" refX="0" refY="0" style="overflow:visible"><path id="path3762" d="M 0,0 5,-5 -12.5,0 5,5 0,0 z" transform="matrix(-0.8,0,0,-0.8,-10,0)" style="fill-rule:evenodd;stroke:#000;stroke-width:1pt"/></marker></defs><metadata id="metadata7"/><g id="layer1" transform="translate(-110.14286,-149.6479)"><g id="g2991" transform="matrix(0,1,-1,0,328.07648,37.362181)"><rect id="rect4759" width="66.429" height="62.143" x="112.143" y="151.648" rx="4" ry="4" style="fill:#a0ffa0;fill-opacity:1;stroke:#000;stroke-width:4;stroke-miterlimit:4;stroke-opacity:1;stroke-dasharray:none;stroke-dashoffset:0"/><rect id="rect4763" width="22.857" height="15.714" x="112.143" y="174.862" rx="4" ry="0" style="fill:#a0ffa0;fill-opacity:1;stroke:#a0ffa0;stroke-width:4;stroke-linejoin:miter;stroke-miterlimit:4;stroke-opacity:1;stroke-dasharray:none;stroke-dashoffset:0"/><path id="path2985" d="m 112.14286,182.75776 45.71429,0" style="fill:none;stroke:#000;stroke-width:4;stroke-linecap:butt;stroke-linejoin:miter;stroke-miterlimit:4;stroke-opacity:1;stroke-dasharray:none;marker-end:url(#Arrow2Mend)"/></g></g></svg>